<svg xmlns="http://www.w3.org/2000/svg" viewBox="0 0 240 240" role="img" aria-label="Fawang biography journey mark">
  <defs>
    <linearGradient id="gold" x1="0" x2="1" y1="0" y2="1">
      <stop offset="0" stop-color="#f4b845"/>
      <stop offset="1" stop-color="#d98224"/>
    </linearGradient>
    <linearGradient id="robe" x1="0" x2="1" y1="0" y2="1">
      <stop offset="0" stop-color="#c6282a"/>
      <stop offset="1" stop-color="#7d252d"/>
    </linearGradient>
  </defs>
  <rect width="240" height="240" rx="28" fill="#fff8ea"/>
  <path d="M28 168C54 122 88 102 130 110C164 116 187 98 210 61" fill="none" stroke="#8f6d4a" stroke-width="6" stroke-dasharray="12 12" stroke-linecap="round"/>
  <path d="M50 144C62 104 91 77 122 77C157 77 187 111 193 154C169 139 146 138 120 154C94 137 72 135 50 144Z" fill="#315f4b"/>
  <circle cx="120" cy="93" r="30" fill="url(#gold)"/>
  <path d="M75 184C84 144 102 122 122 122C144 122 162 146 169 184H75Z" fill="url(#robe)"/>
  <path d="M88 184C98 158 111 145 123 145C136 145 150 160 158 184H88Z" fill="#315a8c" opacity=".95"/>
  <path d="M94 68C105 46 136 45 150 67" fill="none" stroke="#d89a32" stroke-width="10" stroke-linecap="round"/>
  <circle cx="50" cy="144" r="11" fill="#c6282a"/>
  <circle cx="210" cy="61" r="11" fill="#315a8c"/>
  <path d="M47 199H193" stroke="#eadfd0" stroke-width="8" stroke-linecap="round"/>
</svg>
