<svg xmlns="http://www.w3.org/2000/svg" viewBox="0 0 900 560" role="img" aria-label="Larung Gar dusk lights">
  <defs>
    <linearGradient id="night" x1="0" x2="0" y1="0" y2="1">
      <stop offset="0" stop-color="#223f68"/>
      <stop offset=".52" stop-color="#5c446d"/>
      <stop offset="1" stop-color="#8d3f35"/>
    </linearGradient>
    <radialGradient id="lamp" cx="50%" cy="50%" r="50%">
      <stop offset="0" stop-color="#fff1a3"/>
      <stop offset=".45" stop-color="#f7c86d"/>
      <stop offset="1" stop-color="#f7c86d" stop-opacity="0"/>
    </radialGradient>
  </defs>
  <rect width="900" height="560" fill="url(#night)"/>
  <path d="M0 332C146 224 281 207 405 280C546 364 684 342 900 190V560H0Z" fill="#203b35"/>
  <path d="M0 426C139 349 289 335 450 396C618 460 765 442 900 352V560H0Z" fill="#4b292e"/>
  <g fill="#9c2d31">
    <rect x="70" y="382" width="34" height="25" rx="2"/>
    <rect x="124" y="362" width="42" height="30" rx="2"/>
    <rect x="196" y="397" width="36" height="26" rx="2"/>
    <rect x="256" y="350" width="44" height="31" rx="2"/>
    <rect x="334" y="388" width="36" height="26" rx="2"/>
    <rect x="392" y="360" width="44" height="31" rx="2"/>
    <rect x="470" y="408" width="36" height="26" rx="2"/>
    <rect x="532" y="378" width="44" height="31" rx="2"/>
    <rect x="612" y="414" width="36" height="26" rx="2"/>
    <rect x="684" y="389" width="44" height="31" rx="2"/>
    <rect x="762" y="424" width="36" height="26" rx="2"/>
  </g>
  <g opacity=".95">
    <circle cx="87" cy="394" r="15" fill="url(#lamp)"/>
    <circle cx="146" cy="376" r="18" fill="url(#lamp)"/>
    <circle cx="216" cy="410" r="15" fill="url(#lamp)"/>
    <circle cx="278" cy="365" r="19" fill="url(#lamp)"/>
    <circle cx="352" cy="400" r="15" fill="url(#lamp)"/>
    <circle cx="414" cy="374" r="19" fill="url(#lamp)"/>
    <circle cx="489" cy="421" r="15" fill="url(#lamp)"/>
    <circle cx="555" cy="392" r="19" fill="url(#lamp)"/>
    <circle cx="631" cy="427" r="15" fill="url(#lamp)"/>
    <circle cx="706" cy="402" r="19" fill="url(#lamp)"/>
    <circle cx="780" cy="437" r="15" fill="url(#lamp)"/>
  </g>
  <path d="M125 132C200 93 272 93 340 132" stroke="#f7d58d" stroke-width="5" opacity=".48" stroke-linecap="round"/>
  <path d="M104 164C205 109 300 109 389 164" stroke="#f7d58d" stroke-width="3" opacity=".33" stroke-linecap="round"/>
</svg>
