<svg xmlns="http://www.w3.org/2000/svg" viewBox="0 0 900 560" role="img" aria-label="Larung Gar red houses on hillside">
  <defs>
    <linearGradient id="bg" x1="0" x2="1" y1="0" y2="1">
      <stop offset="0" stop-color="#f4efe4"/>
      <stop offset=".48" stop-color="#d7b178"/>
      <stop offset="1" stop-color="#88413b"/>
    </linearGradient>
  </defs>
  <rect width="900" height="560" fill="url(#bg)"/>
  <path d="M-20 500C155 310 341 244 538 301C668 338 787 318 930 196V560H-20Z" fill="#2e5a48"/>
  <path d="M-20 560C148 413 310 360 465 402C625 445 770 417 930 284V560H-20Z" fill="#6d3534"/>
  <g transform="translate(54 188) rotate(-8)">
    <g fill="#bd3032">
      <rect x="0" y="130" width="58" height="40" rx="3"/>
      <rect x="72" y="112" width="64" height="44" rx="3"/>
      <rect x="152" y="146" width="54" height="38" rx="3"/>
      <rect x="222" y="90" width="68" height="48" rx="3"/>
      <rect x="306" y="128" width="60" height="42" rx="3"/>
      <rect x="382" y="76" width="70" height="50" rx="3"/>
      <rect x="470" y="118" width="62" height="42" rx="3"/>
      <rect x="548" y="68" width="70" height="50" rx="3"/>
      <rect x="636" y="104" width="62" height="42" rx="3"/>
      <rect x="714" y="58" width="68" height="48" rx="3"/>
    </g>
    <g fill="#f7d591">
      <rect x="12" y="141" width="11" height="11"/>
      <rect x="34" y="141" width="11" height="11"/>
      <rect x="86" y="124" width="12" height="12"/>
      <rect x="111" y="124" width="12" height="12"/>
      <rect x="238" y="104" width="12" height="12"/>
      <rect x="265" y="104" width="12" height="12"/>
      <rect x="398" y="91" width="12" height="12"/>
      <rect x="425" y="91" width="12" height="12"/>
      <rect x="565" y="83" width="12" height="12"/>
      <rect x="592" y="83" width="12" height="12"/>
      <rect x="730" y="72" width="12" height="12"/>
      <rect x="756" y="72" width="12" height="12"/>
    </g>
  </g>
  <path d="M110 136H500" stroke="#fff7dc" stroke-width="8" opacity=".56" stroke-linecap="round"/>
  <path d="M152 170H376" stroke="#fff7dc" stroke-width="5" opacity=".46" stroke-linecap="round"/>
  <circle cx="706" cy="118" r="72" fill="#f9cf77" opacity=".55"/>
</svg>
